<svg xmlns="http://www.w3.org/2000/svg" viewBox="0 0 24 24" fill="none">
  <path fill="#25D366" d="M12 2a10 10 0 0 0-8.7 14.9L2 22l5.3-1.4A10 10 0 1 0 12 2Z"/>
  <path fill="#fff" d="M9.5 8.2c-.2-.5-.4-.5-.7-.5h-.6c-.2 0-.5.1-.8.4-.3.3-1 1-1 2.4s1 2.8 1.2 3c.2.2 2 3.1 4.9 4.2 2.4 1 2.9.8 3.4.8.5 0 1.7-.7 1.9-1.4.2-.7.2-1.3.1-1.4-.1-.1-.2-.1-.5-.2s-1.7-.8-2-1c-.3-.1-.5-.1-.7.1-.2.2-.8 1-1 1.2-.2.2-.4.2-.7.1-.3-.2-1.3-.5-2.5-1.5-.9-.8-1.5-1.8-1.7-2.1-.2-.3 0-.5.1-.6.1-.1.2-.3.4-.5.1-.1.1-.3 0-.4 0-.1-.7-1.7-1-2.3Z"/>
</svg>
